# xmcd
#
# Track frame offsets: 
#        150
#        10105
#        22077
#        31920
#        42545
#        52177
#        63095
#        69515
#        83172
#        94645
#        106207
#        116927
#        128487
#        139202
#        150182
#        163537
#        178337
#        191745
#        205215
#        208897
#        221500
#        231645
#        243667
#
# Disc length: 3378 seconds
#
# Revision: 0
# Processed by: cddbd v1.5.1PL0 Copyright (c) Steve Scherf et al.
# Submitted via: ExactAudioCopy v0.95a5
#
DISCID=500d3017
DTITLE=The Meditation Singers - Good News
DYEAR=1900
DGENRE=Gospel
TTITLE0=My Soul Looks Back And Wonders
TTITLE1=Ain't That Good News
TTITLE2=You Don't Know How Blessed You Are
TTITLE3=He's All Right With Me
TTITLE4=Remember Me
TTITLE5=One River To Cross
TTITLE6=Now The Day Is Over
TTITLE7=Make A Step In The Right Direction
TTITLE8=The Day Is Past And Gone
TTITLE9=I'm Still Saying Yes
TTITLE10=I'm Determined To Run This Race
TTITLE11=Do You Know Jesus?
TTITLE12=Promise To Meet Me There
TTITLE13=Until I Reach My Heavenly Home
TTITLE14=He Made It All Right
TTITLE15=Jesus Is Always There
TTITLE16=Too Close To Heaven
TTITLE17=God Is Good To Me
TTITLE18=WDIA Radio Station Plug
TTITLE19=Make A Step In The Right Direction
TTITLE20=You Don't Know How Blessed You Are
TTITLE21=Ain't That Good News
TTITLE22=My Soul Looks Back And Wonders
EXTD=
EXTT0=
EXTT1=
EXTT2=
EXTT3=
EXTT4=
EXTT5=
EXTT6=
EXTT7=
EXTT8=
EXTT9=
EXTT10=
EXTT11=
EXTT12=
EXTT13=
EXTT14=
EXTT15=
EXTT16=
EXTT17=
EXTT18=
EXTT19=
EXTT20=
EXTT21=
EXTT22=
PLAYORDER=
